<svg width="292" height="273" viewBox="0 0 292 273" fill="none" xmlns="http://www.w3.org/2000/svg">
<path d="M53.5438 255.722C66.0351 247.999 69.6325 232.554 69.9608 218.544C70.0122 216.201 70.4112 213.749 69.4137 211.632C68.4162 209.515 65.9 207.97 63.7505 208.839C61.9679 209.553 61.0991 211.536 60.0308 213.151C58.605 215.307 56.5965 217.014 54.2389 218.074C52.7072 218.763 50.8345 219.136 49.4123 218.241C47.4816 217.012 47.3786 214.213 47.5267 211.89L48.3375 198.89C48.4855 196.567 48.6271 194.192 48.0286 191.94C47.4301 189.687 45.95 187.551 43.7683 186.791C41.5867 186.032 38.7873 187.171 38.1888 189.423C38.0498 190.381 37.9725 191.346 37.9571 192.313C37.8413 193.272 37.3135 194.314 36.3997 194.533C35.4859 194.752 34.5592 194.044 33.9027 193.323C31.6375 190.839 30.1766 187.724 28.8251 184.629C27.4737 181.533 26.1737 178.367 24.1401 175.684C22.1065 173 19.2041 170.799 15.8834 170.426C12.5627 170.052 8.91376 171.899 7.88408 175.117C6.8544 178.335 8.57911 181.784 10.5162 184.558C13.3786 188.68 16.8231 192.365 20.7422 195.498C21.5104 195.981 22.1054 196.696 22.4411 197.538C22.853 199.122 21.3021 200.576 19.7382 201.001C17.9749 201.477 16.1022 201.194 14.2745 201.303C12.4468 201.413 10.4132 202.108 9.66027 203.781C8.57268 206.104 10.4197 208.704 12.286 210.448C16.0167 213.948 20.3229 216.778 25.0153 218.814C26.6886 219.541 28.4583 220.191 29.7712 221.472C31.084 222.753 31.7983 224.889 30.8716 226.479C29.9449 228.068 27.7762 228.474 26 228.043C24.2238 227.611 22.6793 226.543 21.0125 225.803C17.8848 224.419 13.7404 224.4 11.5394 227.052C10.0915 228.789 9.8276 231.312 10.3875 233.487C11.0536 235.664 12.1476 237.685 13.6052 239.433C18.3868 245.734 24.6743 250.947 31.9464 253.933C39.2185 256.919 46.0401 258.006 53.5631 255.728" fill="#F5F5F5"/>
<path d="M53.1392 266.121C52.8579 259.588 51.9484 253.097 50.4234 246.738C48.5298 238.975 46.192 231.328 43.4216 223.834C42.6944 221.839 41.9801 219.863 41.2786 217.926C40.5771 215.989 39.8692 214.065 39.0648 212.224C37.5149 208.699 35.7726 205.262 33.8456 201.927C32.0244 198.71 30.1838 195.769 28.4398 193.008C26.6958 190.247 25.0161 187.711 23.3815 185.466C20.8313 181.904 18.0014 178.551 14.9189 175.439C13.8248 174.332 12.9882 173.508 12.3447 172.955L11.6561 172.311L11.418 172.112C11.4796 172.197 11.5509 172.275 11.6303 172.344L12.2739 172.987C12.8531 173.56 13.7026 174.403 14.7709 175.523C17.8098 178.671 20.6065 182.044 23.137 185.614C24.7459 187.866 26.4062 190.408 28.1438 193.169C29.8814 195.93 31.6962 198.929 33.5045 202.146C35.4061 205.472 37.1248 208.898 38.6529 212.411C39.4509 214.239 40.146 216.143 40.8539 218.087L42.9905 223.995C45.7559 231.474 48.1021 239.101 50.018 246.841C51.5522 253.174 52.4873 259.638 52.811 266.147" fill="#E0E0E0"/>
<path d="M38.9414 212.205C39.0803 211.889 39.186 211.559 39.2567 211.22C39.4176 210.577 39.6171 209.663 39.8424 208.511C40.3057 206.214 40.827 203.022 41.3998 199.501C41.9725 195.981 42.5324 192.802 43.0279 190.492C43.2725 189.346 43.4784 188.426 43.6264 187.789C43.7284 187.463 43.7911 187.126 43.8131 186.785C43.6661 187.092 43.5497 187.413 43.4655 187.744C43.2661 188.387 43.0151 189.282 42.7319 190.421C42.1656 192.699 41.5413 195.878 40.975 199.431C40.4087 202.983 39.926 206.059 39.5463 208.44C39.3661 209.528 39.2117 210.442 39.0959 211.175C39.0023 211.511 38.9504 211.857 38.9414 212.205Z" fill="#E0E0E0"/>
<path d="M9.35742 204.926C9.74503 205.031 10.1414 205.1 10.5416 205.132C11.3009 205.248 12.4078 205.403 13.7593 205.634C16.4815 206.085 20.1948 206.844 24.307 207.855C28.4193 208.865 32.0296 209.953 34.681 210.815C35.9681 211.233 37.0557 211.6 37.783 211.851C38.1562 212.001 38.5416 212.12 38.9349 212.205C38.5892 211.996 38.2225 211.823 37.8409 211.69C37.1265 211.394 36.084 210.982 34.7776 210.519C32.2034 209.586 28.5094 208.453 24.41 207.43C20.9162 206.563 17.3807 205.873 13.8172 205.364C12.4465 205.171 11.3267 205.055 10.5609 204.997C10.1629 204.935 9.75991 204.912 9.35742 204.926Z" fill="#E0E0E0"/>
<path d="M50.0879 246.165C50.1802 246.059 50.2561 245.94 50.3131 245.811L50.8859 244.762C51.3814 243.842 52.0571 242.497 52.8745 240.83C54.5091 237.483 56.6263 232.792 58.8916 227.586C61.1569 222.379 63.2227 217.675 64.7865 214.303C65.5524 212.662 66.183 211.31 66.6528 210.313L67.1548 209.219C67.2211 209.095 67.2709 208.963 67.3028 208.826C67.2125 208.934 67.1368 209.053 67.0776 209.18C66.9231 209.463 66.73 209.824 66.5048 210.236C66.0093 211.15 65.3336 212.495 64.5162 214.168C62.8816 217.514 60.7644 222.199 58.4991 227.412C56.2338 232.625 54.168 237.323 52.6042 240.695L50.7379 244.685L50.2359 245.772C50.1696 245.896 50.1198 246.028 50.0879 246.165Z" fill="#E0E0E0"/>
<path d="M11.0762 231.106C11.1964 231.184 11.3261 231.247 11.4623 231.293L12.5949 231.743L16.7716 233.365C20.2982 234.736 25.1377 236.679 30.5049 238.835C35.8721 240.991 40.7309 242.896 44.2897 244.189C46.0659 244.833 47.5074 245.348 48.5114 245.682L49.6762 246.056C49.8065 246.113 49.9459 246.148 50.0881 246.159C49.9679 246.08 49.8381 246.017 49.7019 245.972L48.5693 245.521L44.4055 243.913C40.8789 242.542 36.0394 240.598 30.6722 238.436C25.305 236.274 20.4462 234.375 16.8938 233.082C15.1112 232.438 13.6761 231.923 12.6657 231.595L11.5074 231.215C11.3683 231.162 11.2236 231.126 11.0762 231.106Z" fill="#E0E0E0"/>
<path d="M275.149 179.738C275.149 179.738 270.194 178.135 267.864 189.571C265.535 201.007 265.213 207.333 265.213 207.333C265.213 207.333 264.447 209.805 262.639 208.833C260.83 207.861 257.761 204.521 255.502 205.898C253.243 207.275 253.114 210.403 254.755 214.438C256.396 218.473 259.679 227.451 259.968 228.261C260.258 229.072 260.123 230.385 258.778 229.922C257.433 229.458 248.899 224.014 246.55 228.216C244.201 232.419 250.63 242.909 251.312 244.067C251.995 245.225 251.898 245.83 251.383 246.307C250.868 246.783 248.165 244.685 245.694 243.23C243.223 241.776 240.063 240.54 238.918 243.076C237.772 245.612 239.561 254.319 251.589 265.948L257.497 270.967L264.878 268.47C280.324 262.164 285.285 254.769 285.169 251.989C285.054 249.209 281.675 249.19 278.824 249.602C275.973 250.013 272.691 250.959 272.389 250.329C272.086 249.698 272.228 249.1 273.296 248.282C274.364 247.465 284.236 240.129 283.631 235.353C283.026 230.578 273.084 232.451 271.655 232.374C270.226 232.297 270.606 231.016 271.172 230.385C271.739 229.755 278.136 222.663 281.167 219.509C284.198 216.356 285.298 213.511 283.664 211.31C282.029 209.109 278 211.143 275.941 211.368C273.882 211.594 274.094 209.007 274.094 209.007C274.094 209.007 276.147 203.021 278.264 191.541C280.382 180.06 275.046 179.712 275.046 179.712" fill="#EBEBEB"/>
<path d="M256.66 272.647C258.25 264.223 261.319 249.293 263.894 236.46C266.468 223.628 268.778 212.005 270.406 203.607L272.337 193.632L272.858 190.923C272.923 190.62 272.968 190.389 273 190.221C273.015 190.141 273.034 190.061 273.058 189.983C273.058 189.983 273.058 190.067 273.026 190.228C272.993 190.389 272.955 190.627 272.91 190.936C272.794 191.579 272.633 192.48 272.427 193.651C272.009 196.013 271.378 199.443 270.58 203.639C268.997 212.063 266.719 223.686 264.145 236.512C261.57 249.338 258.469 264.262 256.84 272.679" fill="#E0E0E0"/>
<path d="M259.576 210.75C259.7 210.892 259.81 211.045 259.904 211.207C260.104 211.503 260.381 211.947 260.715 212.494C261.359 213.595 262.273 215.139 263.219 216.858L265.632 221.273L266.372 222.611C266.473 222.767 266.557 222.933 266.623 223.107C266.494 222.97 266.382 222.819 266.288 222.656C266.089 222.354 265.812 221.916 265.484 221.369C264.84 220.256 263.959 218.705 263.013 216.98C262.067 215.255 261.217 213.762 260.567 212.585L259.821 211.252C259.715 211.098 259.633 210.929 259.576 210.75Z" fill="#E0E0E0"/>
<path d="M267.344 223.055C267.312 223.004 270.414 221.034 274.275 218.66C278.136 216.285 281.296 214.412 281.354 214.464C281.412 214.515 278.284 216.491 274.423 218.866C270.562 221.24 267.383 223.113 267.344 223.055Z" fill="#E0E0E0"/>
<path d="M262.51 242.58C262.683 242.496 262.867 242.436 263.057 242.4L264.556 241.988C265.843 241.641 267.568 241.152 269.479 240.54C271.391 239.929 273.096 239.324 274.332 238.874L275.793 238.339C275.967 238.262 276.151 238.206 276.34 238.172C276.179 238.274 276.008 238.36 275.831 238.43C275.497 238.578 275.001 238.79 274.396 239.034C273.173 239.524 271.468 240.161 269.55 240.772C267.632 241.383 265.876 241.847 264.595 242.156C263.951 242.304 263.436 242.42 263.076 242.49C262.89 242.537 262.701 242.568 262.51 242.58Z" fill="#E0E0E0"/>
<path d="M253.031 232.998C253.179 233.093 253.315 233.205 253.437 233.333L254.492 234.317C255.374 235.154 256.577 236.319 257.896 237.619C259.216 238.919 260.406 240.109 261.256 240.978L262.253 242.014C262.383 242.135 262.498 242.271 262.594 242.42C262.447 242.324 262.31 242.212 262.189 242.085L261.134 241.1C260.252 240.264 259.048 239.092 257.729 237.792C256.41 236.492 255.219 235.302 254.37 234.44L253.372 233.397C253.242 233.279 253.127 233.145 253.031 232.998Z" fill="#E0E0E0"/>
<path d="M246.57 249.685C246.756 249.816 246.93 249.963 247.092 250.123L248.443 251.378C249.576 252.446 251.133 253.952 252.838 255.58C254.544 257.208 256.088 258.74 257.195 259.834L258.482 261.121C258.653 261.271 258.806 261.439 258.939 261.623C258.752 261.494 258.577 261.348 258.418 261.185L257.067 259.93C255.934 258.869 254.377 257.356 252.665 255.728C250.953 254.1 249.447 252.575 248.314 251.474L247.027 250.187C246.858 250.036 246.704 249.868 246.57 249.685Z" fill="#E0E0E0"/>
<path d="M258.707 261.282C258.926 261.178 259.154 261.096 259.389 261.037L261.275 260.445C262.864 259.943 265.059 259.248 267.459 258.405C269.86 257.562 272.016 256.751 273.567 256.153L275.414 255.445C275.636 255.348 275.867 255.268 276.102 255.207C275.898 255.334 275.683 255.442 275.459 255.529C275.034 255.722 274.416 255.992 273.644 256.314C272.106 256.957 269.956 257.794 267.549 258.631C265.143 259.467 262.942 260.149 261.333 260.606C260.528 260.838 259.878 261.012 259.402 261.127C259.174 261.193 258.942 261.244 258.707 261.282Z" fill="#E0E0E0"/>
<path d="M64.1054 37.1533C64.5577 37.1206 65.0072 37.0561 65.4504 36.9603C66.5365 36.7014 67.5276 36.1414 68.3097 35.3445C69.0918 34.5476 69.6332 33.5462 69.8716 32.4554C69.9764 31.9324 70.0217 31.3991 70.0067 30.8659C70.0067 30.306 70.0067 29.7203 70.0067 29.1218C70.0067 26.7085 70.0067 23.9735 70.0067 20.923C70.0067 17.8726 70.0067 14.5648 70.0067 10.9931C70.0067 10.0986 70.0067 9.19115 70.0067 8.27088C70.0644 7.34765 69.9951 6.42087 69.8008 5.51649C69.5544 4.59044 69.082 3.74 68.4261 3.0414C67.7702 2.34279 66.9512 1.81785 66.0425 1.51362C65.0833 1.2283 64.0799 1.12142 63.0822 1.19828H39.953C38.8327 1.19495 37.7355 1.51661 36.7942 2.12428C35.853 2.73196 35.1083 3.59956 34.6502 4.62195C34.4244 5.11841 34.2726 5.64529 34.1997 6.18578C34.1305 6.7321 34.1004 7.28266 34.1096 7.83326V11.1411C34.1096 15.5108 34.1096 19.726 34.1096 23.7353C34.1096 25.7432 34.1096 27.706 34.1096 29.6045C34.0586 30.5308 34.0996 31.4599 34.2319 32.3782C34.4162 33.2473 34.7946 34.0635 35.3388 34.7658C35.858 35.4328 36.516 35.9791 37.2671 36.3669C38.0182 36.7547 38.8446 36.9747 39.6892 37.0117C41.3302 37.0117 42.9069 37.0117 44.445 37.0117L58.8283 37.0632H62.7411H63.7579H64.099H63.7579H62.7411H58.8283L44.445 37.1212C42.9262 37.1212 41.3431 37.1212 39.6763 37.1212C38.7934 37.0864 37.9285 36.86 37.1418 36.4577C36.355 36.0555 35.6651 35.4869 35.12 34.7915C34.547 34.0553 34.1468 33.1997 33.9487 32.2881C33.8105 31.351 33.7653 30.4025 33.8136 29.4565C33.8136 27.5258 33.8136 25.5952 33.8136 23.5873C33.8136 19.578 33.8136 15.3628 33.8136 10.9931V7.83326C33.7269 6.68805 33.9144 5.53866 34.3606 4.48037C34.8495 3.40334 35.6379 2.48969 36.6318 1.8484C37.6257 1.20712 38.7831 0.865266 39.9659 0.863632H63.0371C64.0701 0.787786 65.1082 0.901195 66.1004 1.19828C67.0524 1.52557 67.9095 2.08172 68.5963 2.81784C69.283 3.55396 69.7784 4.44752 70.0389 5.41996C70.236 6.35008 70.3074 7.30245 70.2513 8.25157C70.2513 9.17184 70.2513 10.0792 70.2513 10.9738C70.2513 14.5455 70.2513 17.8662 70.2513 20.9037C70.2513 23.9413 70.2513 26.6957 70.2513 29.1025C70.2513 29.701 70.2513 30.2867 70.2513 30.8466C70.263 31.3913 70.2112 31.9356 70.0968 32.4683C69.8885 33.4125 69.4608 34.2943 68.8483 35.0425C67.9975 36.0628 66.8316 36.7714 65.5341 37.0568C65.2021 37.1304 64.8637 37.1714 64.5237 37.1791L64.1054 37.1533Z" fill="#E0E0E0"/>
<path d="M55.1712 6.68131L45.1641 20.7943H52.449L47.513 31.503L58.8845 16.4826L52.0243 16.6177L55.1712 6.68131Z" fill="#F5F5F5"/>
<path d="M52.457 102.338C53.0863 102.308 53.7091 102.198 54.3104 102.01C55.0369 101.769 55.7084 101.386 56.2861 100.884C57.0784 100.206 57.6778 99.3318 58.0237 98.3483C58.4742 97.2479 58.3519 95.9157 58.3583 94.4871C58.3648 93.0584 58.3583 91.4817 58.3583 89.8084C58.3583 86.4491 58.3583 82.6265 58.3583 78.3983C58.3583 74.1702 58.3583 69.5431 58.3583 64.5749V60.7844C58.3583 59.4973 58.4806 58.178 57.9658 56.9746C57.4916 55.7411 56.6138 54.7045 55.4752 54.0336C54.8989 53.6974 54.2702 53.4603 53.6154 53.3321C52.9383 53.2304 52.253 53.1937 51.5689 53.2227H15.2149C14.4406 53.2285 13.6753 53.3882 12.9634 53.6926C12.2515 53.9971 11.6073 54.4401 11.0682 54.9959C10.5292 55.5517 10.1061 56.2092 9.82367 56.93C9.5412 57.6509 9.40498 58.4208 9.42292 59.1948C9.42292 62.3354 9.42292 65.4265 9.42292 68.4684C9.42292 74.5499 9.42292 80.4126 9.42292 86.0051C9.42292 88.7981 9.42292 91.5203 9.42292 94.1717C9.46154 95.491 9.29421 96.8167 9.66104 98.033C10.018 99.2227 10.7436 100.268 11.7333 101.019C12.6902 101.749 13.8509 102.163 15.054 102.203C16.2381 102.203 17.4222 102.203 18.5742 102.203H25.2092L45.2235 102.255L50.6679 102.287H52.0837C52.4055 102.287 52.5664 102.287 52.5664 102.287C52.5664 102.287 52.4055 102.287 52.0837 102.287H50.6679H45.2235L25.0998 102.461H18.4648C17.3128 102.461 16.1416 102.461 14.9317 102.461C13.6729 102.426 12.457 101.996 11.4565 101.231C10.4162 100.448 9.65396 99.3518 9.28134 98.1038C9.09941 97.4766 9.01051 96.8261 9.01749 96.1731V94.2039C9.01749 91.5525 9.01749 88.8303 9.01749 86.0373C9.01749 80.4448 9.01749 74.5821 9.01749 68.5006V59.2013C8.99751 58.3869 9.13843 57.5767 9.43218 56.8169C9.72593 56.0571 10.1667 55.3628 10.7293 54.7737C11.3018 54.1768 11.9893 53.702 12.7502 53.3779C13.5112 53.0539 14.3299 52.8872 15.1569 52.8881H51.511C52.2145 52.8596 52.9192 52.8984 53.6154 53.0039C54.2964 53.1422 54.9492 53.3946 55.546 53.7504C56.7434 54.4537 57.6633 55.5463 58.1524 56.8459C58.4024 57.4731 58.5375 58.1401 58.5514 58.8152C58.5514 59.4587 58.5514 60.1023 58.5514 60.7458C58.5514 62.0329 58.5514 63.32 58.5514 64.5363C58.5514 69.5045 58.5514 74.138 58.5514 78.3597C58.5514 82.5814 58.5514 86.4105 58.5514 89.7698C58.5514 91.4431 58.5514 92.9876 58.5514 94.4484C58.5514 95.1692 58.5514 95.8514 58.5514 96.5142C58.5349 97.1456 58.4131 97.7699 58.191 98.3612C57.8313 99.3633 57.2117 100.252 56.3955 100.935C55.8034 101.438 55.1162 101.817 54.3748 102.049C53.923 102.188 53.4565 102.275 52.9847 102.306C52.6179 102.345 52.457 102.338 52.457 102.338Z" fill="#E0E0E0"/>
<path d="M38.7106 76.0108H36.9473L33.086 70.6564V67.1427C33.086 67.1427 30.3703 66.9754 30.6856 71.5767C31.0009 76.1781 30.6856 75.0068 30.6856 75.0068C30.6856 75.0068 24.8937 75.0068 24.4303 75.5281C24.0828 75.8949 23.9219 81.6354 23.864 84.7437C23.8246 85.4955 24.0384 86.2388 24.4712 86.8548C24.9041 87.4708 25.5309 87.9239 26.2515 88.1417C26.4617 88.1966 26.6779 88.2247 26.8951 88.2253C28.3366 88.2253 35.6988 87.0541 35.6988 87.0541H38.7428L38.7106 76.0108Z" fill="#F5F5F5"/>
<path d="M43.7498 75.0648L42.6686 87.1056H39.6504V75.3093L43.7498 75.0648Z" fill="#F5F5F5"/>
<path d="M291.785 272.435C291.785 272.525 226.458 272.602 145.892 272.602C65.3266 272.602 0 272.525 0 272.435C0 272.345 65.3008 272.293 145.892 272.293C226.484 272.293 291.785 272.345 291.785 272.435Z" fill="#263238"/>
<path d="M127.996 247.767L131.143 225.024L145.874 225.784L137.675 250.219L127.996 247.767Z" fill="#FFBE9D"/>
<path d="M138.536 247.838L138.485 248.482C138.485 248.482 149.123 253.888 149.058 255.992L127.178 253.945L128.156 246.686C129.703 247.61 131.43 248.19 133.221 248.389C135.012 248.588 136.824 248.4 138.536 247.838Z" fill="url(#paint0_linear_639_1399)"/>
<g opacity="0.6">
<path d="M130.14 249.209C129.924 249.255 129.733 249.379 129.602 249.557C129.472 249.735 129.411 249.955 129.432 250.174C129.47 250.391 129.588 250.585 129.764 250.718C129.94 250.85 130.159 250.911 130.378 250.889C130.607 250.841 130.81 250.709 130.947 250.52C131.085 250.331 131.148 250.098 131.124 249.865C131.066 249.639 130.922 249.445 130.722 249.325C130.522 249.204 130.283 249.167 130.056 249.222" fill="white"/>
</g>
<g opacity="0.6">
<path d="M127.166 253.933L127.398 252.182L148.294 254.756C148.294 254.756 149.233 255.271 149.06 255.953L127.166 253.933Z" fill="white"/>
</g>
<path d="M138.556 248.54C138.556 248.643 138.003 248.643 137.443 248.939C136.883 249.235 136.567 249.653 136.471 249.582C136.374 249.511 136.593 248.939 137.275 248.585C137.957 248.231 138.588 248.443 138.556 248.54Z" fill="#263238"/>
<path d="M140.764 249.704C140.764 249.807 140.3 249.949 139.895 250.348C139.49 250.747 139.335 251.23 139.251 251.217C139.168 251.204 139.136 250.573 139.65 250.078C140.165 249.582 140.77 249.602 140.764 249.704Z" fill="#263238"/>
<path d="M141.812 252.575C141.709 252.575 141.613 252.034 141.941 251.481C142.269 250.927 142.791 250.734 142.829 250.837C142.868 250.94 142.527 251.217 142.263 251.68C141.999 252.144 141.915 252.568 141.812 252.575Z" fill="#263238"/>
<path d="M67.6367 213.981L83.7319 202.442L96.4548 209.36L73.3707 222.431L67.6367 213.981Z" fill="#FFBE9D"/>
<path d="M74.6521 221.89L74.105 222.251C74.105 222.251 76.4089 233.957 74.71 235.199L62.8301 216.703L69.0146 212.791C69.2651 214.617 69.8963 216.371 70.8674 217.939C71.8385 219.506 73.1278 220.853 74.6521 221.89Z" fill="url(#paint1_linear_639_1399)"/>
<g opacity="0.6">
<path d="M68.39 216.137C68.2201 215.994 68.0039 215.919 67.7822 215.925C67.5604 215.931 67.3485 216.018 67.1865 216.169C67.0354 216.329 66.9512 216.541 66.9512 216.761C66.9512 216.981 67.0354 217.193 67.1865 217.353C67.3663 217.511 67.5989 217.594 67.8377 217.587C68.0764 217.58 68.3036 217.482 68.4736 217.315C68.6112 217.128 68.6712 216.895 68.6412 216.665C68.6112 216.434 68.4936 216.225 68.3127 216.079" fill="white"/>
</g>
<g opacity="0.6">
<path d="M62.8359 216.703L64.3547 215.809L75.1856 233.867C75.1856 233.867 75.3594 234.922 74.7158 235.199L62.8359 216.703Z" fill="white"/>
</g>
<path d="M74.1044 222.347C74.0078 222.405 73.6796 221.974 73.1004 221.704C72.5212 221.433 71.9935 221.453 71.9807 221.35C71.9678 221.247 72.5663 221.041 73.2678 221.35C73.9692 221.659 74.2009 222.315 74.1044 222.347Z" fill="#263238"/>
<path d="M74.5493 224.806C74.472 224.883 74.0666 224.587 73.4874 224.529C72.9082 224.471 72.4513 224.638 72.3934 224.529C72.3355 224.419 72.8181 224.053 73.5324 224.143C74.2468 224.233 74.6522 224.748 74.5493 224.806Z" fill="#263238"/>
<path d="M72.9345 227.399C72.8637 227.328 73.2305 226.91 73.874 226.826C74.5176 226.743 74.9874 227.039 74.9359 227.122C74.8844 227.206 74.4532 227.122 73.9255 227.193C73.3978 227.264 72.9988 227.483 72.9345 227.399Z" fill="#263238"/>
<path d="M171.796 89.5575C173.694 89.5575 175.232 88.0189 175.232 86.1209C175.232 84.223 173.694 82.6844 171.796 82.6844C169.898 82.6844 168.359 84.223 168.359 86.1209C168.359 88.0189 169.898 89.5575 171.796 89.5575Z" fill="#263238"/>
<path d="M132.951 54.5999C136.664 55.5024 140.059 57.4019 142.771 60.0933C145.483 62.7847 147.408 66.1657 148.338 69.8713C149.754 75.245 152.895 98.934 152.895 98.934L171.828 84.319L177.684 92.0995L160.353 111.805C156.492 116.484 148.93 117.597 143.177 115.666C136.645 113.472 136.31 108.954 137.057 102.107L132.951 54.5999Z" fill="#FFBE9D"/>
<path d="M180.194 88.9332L186.43 82.1052L176.725 76.9568C176.043 77.3687 171.828 84.2997 171.828 84.2997L171.57 85.4902C171.57 85.4902 177.549 91.9901 177.716 92.0995C177.884 92.2089 180.194 88.9332 180.194 88.9332Z" fill="#FFBE9D"/>
<path d="M186.038 82.723C186.038 82.723 186.006 82.8067 185.929 82.9032C185.285 83.7205 182.19 86.9254 181.662 86.6937C181.134 86.462 180.195 85.1234 180.523 84.6279C180.851 84.1324 184.571 80.7151 184.571 80.7151C184.571 80.7151 185.214 80.2131 186.289 80.9854C186.971 81.4616 186.038 82.723 186.038 82.723Z" fill="#FFBE9D"/>
<path d="M185.188 79.7112C185.188 79.7112 185.156 79.7948 185.085 79.8914C184.442 80.7151 181.34 83.92 180.812 83.6819C180.285 83.4438 179.351 82.118 179.68 81.6161C180.008 81.1141 183.721 77.7033 183.721 77.7033C183.721 77.7033 184.365 77.2013 185.446 77.9736C186.128 78.4563 185.188 79.7112 185.188 79.7112Z" fill="#FFBE9D"/>
<path d="M183.837 77.3301C183.837 77.3301 183.805 77.4137 183.728 77.5102C183.084 78.3276 179.983 81.5324 179.455 81.3007C178.927 81.0691 177.994 79.7305 178.322 79.2285C178.65 78.7266 182.364 75.3157 182.364 75.3157C182.364 75.3157 183.007 74.8138 184.088 75.5925C184.771 76.0687 183.837 77.3301 183.837 77.3301Z" fill="#FFBE9D"/>
<path d="M182.452 74.9875C182.452 74.9875 182.42 75.0712 182.343 75.1677C181.699 75.9915 178.604 79.1963 178.076 78.9582C177.548 78.7201 176.615 77.3944 176.943 76.8924C177.272 76.3905 180.985 72.9797 180.985 72.9797C180.985 72.9797 181.628 72.4777 182.709 73.25C183.411 73.7326 182.452 74.9875 182.452 74.9875Z" fill="#FFBE9D"/>
<path d="M181.41 83.6626C182.012 83.2488 182.563 82.7649 183.051 82.221C183.593 81.7466 184.073 81.2061 184.48 80.6122C183.872 81.0188 183.319 81.501 182.832 82.0473C182.287 82.5181 181.808 83.0616 181.41 83.6626Z" fill="#EB996E"/>
<path d="M179.48 81.8606C180.311 81.241 181.083 80.5451 181.784 79.782C182.559 79.0919 183.266 78.3291 183.895 77.5038C182.297 78.8214 180.819 80.2795 179.48 81.8606Z" fill="#EB996E"/>
<g opacity="0.78">
<path d="M177.684 79.8721C179.286 78.5589 180.764 77.1004 182.098 75.5152C181.269 76.1368 180.498 76.8326 179.794 77.5939C179.022 78.2861 178.315 79.0487 177.684 79.8721Z" fill="#EB996E"/>
</g>
<path d="M174.004 84.6086L174.435 80.9404C174.625 79.3345 175.427 77.8638 176.675 76.8345L177.627 76.0558L183.709 82.4334C183.709 82.4334 180.999 84.1838 179.641 82.0988L179.963 85.516L174.004 84.6086Z" fill="#FFBE9D"/>
<path d="M179.203 85.5353C179.158 85.5353 179.377 85.1556 179.512 84.4606C179.69 83.4967 179.509 82.501 179.004 81.6611L178.521 80.8696L179.261 81.4359L180.96 82.723H180.922C181.318 82.9485 181.771 83.0562 182.227 83.0334C182.683 83.0106 183.123 82.8583 183.496 82.5943C183.548 82.5503 183.597 82.503 183.644 82.4527V82.7294C181.855 80.9983 180.252 79.4087 179.171 78.2246C178.624 77.6197 178.199 77.1177 177.884 76.7637C177.72 76.5925 177.583 76.3972 177.479 76.1845C178.136 76.7616 178.759 77.3761 179.345 78.0251C180.477 79.1835 182.099 80.728 183.901 82.4591L184.043 82.5943L183.914 82.7359C183.854 82.8103 183.784 82.8773 183.708 82.9354C183.274 83.283 182.733 83.4694 182.176 83.4631C181.671 83.4535 181.174 83.3304 180.722 83.1027L179.055 81.7577L179.306 81.5324C179.831 82.4491 179.976 83.5346 179.712 84.5571C179.632 84.9226 179.457 85.2602 179.203 85.5353Z" fill="#EB996E"/>
<path d="M182.318 82.9547C182.388 82.9868 182.105 83.3408 181.996 83.9264C181.968 84.0796 181.987 84.2374 182.05 84.3797C182.113 84.5219 182.218 84.642 182.35 84.7244C182.541 84.7849 182.746 84.7942 182.942 84.7513C183.139 84.7084 183.32 84.6148 183.469 84.4799C184.235 83.8685 184.988 83.3344 185.471 82.9225C185.954 82.5106 186.243 82.2081 186.295 82.2468C186.346 82.2854 186.134 82.6458 185.651 83.1349C185.034 83.7396 184.376 84.3009 183.682 84.8145C183.476 84.9923 183.226 85.1098 182.958 85.1541C182.69 85.1984 182.415 85.1677 182.163 85.0655C181.964 84.9467 181.811 84.7655 181.726 84.5502C181.641 84.3348 181.629 84.0974 181.693 83.8749C181.765 83.6075 181.894 83.3592 182.073 83.1477C182.215 83.0061 182.298 82.9418 182.318 82.9547Z" fill="#EB996E"/>
<path d="M150.997 106.901C150.834 106.525 150.744 106.121 150.733 105.711C150.635 104.728 150.689 103.736 150.894 102.77C151.094 101.799 151.448 100.867 151.943 100.009C152.119 99.6398 152.363 99.3078 152.664 99.0305C152.042 100.24 151.558 101.516 151.222 102.834C150.997 104.177 150.921 105.541 150.997 106.901Z" fill="#EB996E"/>
<path d="M169.602 85.7284L176.874 93.0391L178.856 90.7416L171.661 84.0873L169.602 85.7284Z" fill="#263238"/>
<path d="M121.663 63.0626C122.12 60.5656 120.73 57.5538 122.442 55.6746C123.626 54.3876 125.737 54.3876 127.108 53.3C128.871 51.8648 128.749 49.2134 128.948 46.9546C129.282 43.3072 130.832 39.878 133.35 37.2177C134.36 36.1558 135.622 34.8752 135.203 33.4722C135.012 32.9767 134.718 32.5272 134.341 32.153L121.766 17.8147C120.782 16.5638 119.604 15.4776 118.278 14.597C117.611 14.1633 116.851 13.894 116.06 13.8112C115.269 13.7284 114.47 13.8345 113.728 14.1207C111.205 15.2856 110.774 18.6835 108.979 20.8008C107.357 22.7314 104.616 23.5616 103.419 25.7625C102.279 27.8669 102.891 30.6342 101.623 32.6614C99.9369 35.3707 95.7281 35.5316 93.9713 38.1959C92.4332 40.5255 93.3277 43.9492 91.5901 46.118C90.0006 48.0872 87.0853 48.0872 84.7363 49.0847C84.7363 49.0847 87.4071 52.0193 88.5976 53.7054C89.7882 55.3915 93.9005 55.5202 95.7088 54.291C97.5172 53.0618 97.8776 52.0193 98.9909 50.8545C99.888 50.0357 100.923 49.3821 102.048 48.9238C102.048 48.9238 98.7786 51.3886 98.9909 52.4827C99.2033 53.5767 95.9662 57.5924 95.194 57.3286C94.4217 57.0647 103.727 63.0561 103.727 63.0561L121.663 63.0626Z" fill="#263238"/>
<path d="M137.585 14.4618C137.456 16.1736 138.588 17.6795 139.728 18.9666C140.867 20.2537 142.141 21.5923 142.385 23.2913C142.823 26.3031 139.869 29.0832 140.455 32.0822C140.783 33.6846 142.089 34.9717 142.321 36.587C142.553 38.2023 141.71 39.6825 140.674 40.873C139.637 42.0636 138.37 43.0482 137.456 44.3353C136.542 45.6224 135.956 47.2956 135.261 48.8016C134.566 50.3075 133.633 51.8134 132.172 52.6049C129.971 53.8019 126.895 53.2485 125.209 55.089C123.523 56.9296 124.096 60.1344 122.088 61.4795" fill="#263238"/>
<path d="M111.25 17.0811C111.205 15.5301 112.64 14.3267 114.088 13.7603C115.536 13.194 117.126 12.9752 118.413 12.1064C119.558 11.3406 120.343 10.1372 121.289 9.15897C122.482 7.95144 123.974 7.08282 125.613 6.64217C127.252 6.20152 128.979 6.2047 130.616 6.65138C132.254 7.09805 133.743 7.97216 134.931 9.18407C136.119 10.396 136.964 11.9021 137.378 13.548C137.931 15.7618 137.552 18.381 135.808 19.8483C133.781 21.5602 130.782 21.1805 128.188 20.6463C125.595 20.1122 122.66 19.5909 120.466 21.1161C119.178 22.0364 118.413 23.5294 117.615 24.913C116.817 26.2967 115.813 27.706 114.3 28.2273C112.788 28.7486 110.742 27.8476 110.684 26.2516" fill="#263238"/>
<path d="M117.377 17.4028C116.728 17.4677 116.128 17.7761 115.698 18.2658C115.268 18.7555 115.04 19.39 115.06 20.0414L116.611 55.1598C116.675 59.3043 122.737 61.6403 127.178 61.5374C131.683 61.428 131.805 59.2335 131.863 55.2821C131.953 48.6921 131.946 46.2209 131.946 46.2724C131.946 46.3239 137.616 45.32 138.768 37.9063C139.347 34.2316 139.148 28.2016 138.826 23.2784C138.536 18.8444 135.608 13.4064 131.168 13.8826L117.377 17.4028Z" fill="#FFBE9D"/>
<path d="M137.423 27.5001C137.426 27.7467 137.334 27.9849 137.164 28.164C136.995 28.3431 136.762 28.4489 136.515 28.459C136.395 28.4695 136.274 28.4557 136.159 28.4184C136.044 28.3811 135.937 28.321 135.846 28.2417C135.755 28.1624 135.68 28.0656 135.627 27.957C135.574 27.8484 135.544 27.7302 135.537 27.6095C135.534 27.3623 135.626 27.1234 135.796 26.9432C135.965 26.7631 136.198 26.6558 136.445 26.6442C136.565 26.6346 136.687 26.6492 136.802 26.6873C136.917 26.7253 137.023 26.786 137.114 26.8658C137.205 26.9456 137.28 27.0428 137.333 27.1518C137.386 27.2607 137.416 27.3791 137.423 27.5001Z" fill="#263238"/>
<path d="M137.527 26.4125C137.411 26.5412 136.69 26.0071 135.667 26.0135C134.644 26.0199 133.904 26.5283 133.794 26.4061C133.685 26.2838 133.859 26.1293 134.181 25.8912C134.622 25.5832 135.148 25.4191 135.687 25.4214C136.218 25.4181 136.737 25.585 137.167 25.8977C137.476 26.1358 137.585 26.361 137.527 26.4125Z" fill="#263238"/>
<path d="M127.269 27.7447C127.273 27.9923 127.179 28.2314 127.008 28.4107C126.837 28.59 126.603 28.6951 126.355 28.7035C126.234 28.7132 126.113 28.6985 125.998 28.6604C125.883 28.6224 125.777 28.5617 125.686 28.4819C125.594 28.4021 125.52 28.3049 125.467 28.196C125.414 28.087 125.383 27.9686 125.377 27.8476C125.375 27.6005 125.469 27.3622 125.64 27.1833C125.81 27.0044 126.044 26.8987 126.291 26.8887C126.412 26.8791 126.533 26.8938 126.648 26.9318C126.763 26.9699 126.869 27.0306 126.96 27.1104C127.052 27.1902 127.126 27.2874 127.179 27.3963C127.232 27.5052 127.263 27.6237 127.269 27.7447Z" fill="#263238"/>
<path d="M127.501 26.6249C127.385 26.7536 126.664 26.2194 125.641 26.2259C124.618 26.2323 123.878 26.7407 123.762 26.6184C123.646 26.4962 123.826 26.3417 124.154 26.1036C124.596 25.7956 125.122 25.6315 125.66 25.6338C126.19 25.6319 126.706 25.7987 127.134 26.11C127.424 26.3482 127.559 26.5734 127.501 26.6249Z" fill="#263238"/>
<path d="M131.22 34.1801C131.756 34.007 132.312 33.9053 132.874 33.8777C133.138 33.8455 133.382 33.794 133.427 33.6202C133.447 33.3505 133.384 33.0813 133.247 32.848L132.475 30.8659C131.4 28.0407 130.622 25.7175 130.731 25.6789C130.84 25.6402 131.812 27.8927 132.887 30.7114C133.144 31.4064 133.395 32.0693 133.633 32.7064C133.794 33.0219 133.842 33.3832 133.769 33.7296C133.731 33.822 133.672 33.9044 133.598 33.9703C133.523 34.0362 133.434 34.0838 133.337 34.1093C133.195 34.1505 133.048 34.1722 132.9 34.1737C132.342 34.247 131.778 34.2491 131.22 34.1801Z" fill="#263238"/>
<path d="M131.928 46.2531C128.448 46.3158 125.019 45.4112 122.023 43.6403C122.023 43.6403 124.437 48.7115 131.838 48.0036L131.928 46.2531Z" fill="#EB996E"/>
<path d="M130.796 36.6449C130.599 36.4023 130.345 36.2127 130.056 36.0936C129.767 35.9744 129.453 35.9294 129.142 35.9628C128.916 35.9866 128.696 36.0559 128.497 36.1665C128.298 36.277 128.124 36.4266 127.984 36.6063C127.849 36.7774 127.77 36.9853 127.756 37.2025C127.742 37.4196 127.795 37.6359 127.907 37.8226C128.071 38.0049 128.286 38.1345 128.524 38.1951C128.762 38.2558 129.013 38.2449 129.245 38.1637C129.722 37.9905 130.16 37.7235 130.532 37.3786C130.65 37.2978 130.75 37.1951 130.828 37.0761C130.866 37.0199 130.886 36.9539 130.886 36.8863C130.886 36.8186 130.866 36.7526 130.828 36.6964" fill="#EB996E"/>
<path d="M128.215 34.8945C128.382 34.8945 128.388 35.9949 129.334 36.7801C130.28 37.5652 131.464 37.4236 131.477 37.5909C131.49 37.7583 131.213 37.8097 130.712 37.8226C130.06 37.828 129.427 37.5997 128.929 37.1791C128.446 36.7861 128.134 36.2207 128.06 35.6024C128.021 35.1648 128.144 34.888 128.215 34.8945Z" fill="#263238"/>
<path d="M127.957 24.8422C127.854 25.119 126.837 24.9903 125.64 25.1318C124.443 25.2734 123.471 25.6081 123.317 25.3635C123.246 25.2412 123.413 24.9838 123.799 24.72C124.32 24.3912 124.908 24.1845 125.52 24.1154C126.132 24.0463 126.752 24.1166 127.332 24.321C127.776 24.4883 127.995 24.7071 127.957 24.8422Z" fill="#263238"/>
<path d="M137.146 23.4651C136.966 23.6967 136.265 23.4651 135.415 23.4651C134.566 23.4651 133.858 23.6259 133.691 23.3814C133.62 23.2656 133.729 23.0339 134.045 22.8151C134.462 22.5459 134.951 22.4111 135.447 22.4289C135.943 22.437 136.425 22.5989 136.825 22.8923C137.127 23.1111 137.224 23.3492 137.146 23.4651Z" fill="#263238"/>
<path d="M112.217 41.7225C113.238 41.9275 114.294 41.8867 115.296 41.6036C116.298 41.3204 117.219 40.8029 117.982 40.0939C118.745 39.3848 119.329 38.5045 119.685 37.5255C120.041 36.5465 120.159 35.4969 120.029 34.4633C119.798 32.6485 118.82 30.8015 119.45 29.0832C120.28 26.8115 123.466 26.11 124.309 23.8447C124.798 22.5577 124.361 20.9874 124.914 19.6939C125.467 18.4003 126.716 17.7632 127.964 17.332C129.213 16.9009 130.539 16.5726 131.581 15.7618C132.624 14.9509 133.28 13.4128 132.604 12.2802C127.083 12.9402 121.66 14.2581 116.451 16.2058C115.241 16.6563 113.974 17.1969 113.266 18.2652C112.558 19.3335 112.545 20.8394 112.622 22.2294L113.549 42.1408" fill="#263238"/>
<path d="M123.748 12.0228C123.624 12.1947 123.484 12.3542 123.33 12.499C122.886 12.9143 122.372 13.2477 121.811 13.4836C120.92 13.8388 119.981 14.0558 119.025 14.1272C117.911 14.2623 116.631 14.2366 115.24 14.2687C113.726 14.2689 112.227 14.573 110.832 15.1633C110.072 15.5324 109.425 16.0992 108.959 16.8043C108.512 17.5751 108.152 18.3931 107.885 19.2434C107.582 20.1874 106.967 21.0001 106.141 21.5473C105.247 21.9986 104.306 22.3482 103.335 22.5898C102.365 22.8275 101.511 23.3995 100.922 24.2051C100.386 25.0935 100.02 26.0731 99.8404 27.0947C99.6459 28.1454 99.3396 29.1724 98.9265 30.158C98.4613 31.1011 97.8036 31.9364 96.9959 32.6099C96.2187 33.2619 95.3164 33.7481 94.3445 34.0385C93.4128 34.2863 92.4509 34.4011 91.4871 34.3796C90.6084 34.3516 89.733 34.5005 88.9129 34.8172C88.54 34.9937 88.2004 35.2332 87.909 35.5251C87.6359 35.8268 87.4023 36.162 87.2139 36.5226C86.4932 37.9706 86.2615 39.5345 85.6179 40.8087C85.0207 41.9546 84.0923 42.8942 82.9536 43.5051C82.1083 43.9694 81.1737 44.248 80.2121 44.3225C79.6063 44.3662 78.9973 44.3229 78.4038 44.1937C78.1978 44.1423 78.0498 44.0843 77.9533 44.0586L77.7988 44.0007C78.5832 44.1947 79.3939 44.26 80.1993 44.1937C81.1376 44.0988 82.0455 43.8071 82.8636 43.3378C83.9558 42.7345 84.8398 41.8147 85.3991 40.6993C86.0427 39.4637 86.2293 37.9127 86.9694 36.3939C87.1637 36.0078 87.4106 35.6504 87.703 35.3321C88.016 35.0078 88.3843 34.7419 88.7906 34.547C89.6525 34.2074 90.574 34.0455 91.5 34.0707C92.4354 34.0845 93.3684 33.972 94.2737 33.7361C95.2008 33.4518 96.061 32.9834 96.8028 32.3589C97.5763 31.7156 98.2037 30.9148 98.6434 30.0099C99.0478 29.0478 99.3456 28.0444 99.5315 27.0174C99.7201 25.9543 100.104 24.9353 100.664 24.0121C100.969 23.5662 101.363 23.1891 101.822 22.9052C102.271 22.6341 102.751 22.418 103.251 22.2616C104.2 22.0317 105.12 21.6949 105.993 21.2577C106.766 20.7536 107.339 19.9958 107.614 19.1147C107.896 18.245 108.273 17.4096 108.741 16.6241C109.244 15.9011 109.933 15.3275 110.736 14.9638C112.16 14.3614 113.694 14.0612 115.24 14.0821C116.65 14.0821 117.905 14.0821 119.012 13.9856C119.955 13.921 120.883 13.7171 121.766 13.3806C122.512 13.0679 123.187 12.6058 123.748 12.0228Z" fill="#263238"/>
<path d="M118.239 53.1391C109.377 53.9757 103.47 57.1934 98.9648 61.5502L104.898 79.2736C104.898 79.2736 110.369 89.7119 109.995 97.132C109.622 104.552 106.018 107.622 103.077 117.642L143.955 123.627C143.955 123.627 141.651 99.6934 141.156 94.4999C140.66 89.3065 146.723 82.6393 144.895 75.7469C140.834 60.4433 134.765 55.1534 134.765 55.1534C134.765 55.1534 125.91 51.9035 118.239 53.1391Z" fill="url(#paint2_linear_639_1399)"/>
<path d="M106.514 109.006C107.034 109.343 107.636 109.534 108.256 109.556C108.876 109.579 109.49 109.433 110.034 109.134C111.117 108.517 112.021 107.63 112.66 106.56C113.947 104.629 114.803 102.345 114.481 100.073C114.159 97.8013 112.364 95.6519 110.072 95.4652C110.072 95.4652 109.879 98.683 109.673 99.7191C109.468 100.755 106.514 109.006 106.514 109.006Z" fill="#FFBE9D"/>
<path d="M135.197 79.2285C135.192 79.4467 135.158 79.6633 135.094 79.8721C134.958 80.4741 134.773 81.0639 134.54 81.6354C133.774 83.5429 132.577 85.2474 131.043 86.6161C129.51 87.9847 127.68 88.9803 125.698 89.5253C125.102 89.6961 124.493 89.8166 123.877 89.8857C123.653 89.9167 123.425 89.9167 123.201 89.8857C123.201 89.8213 124.16 89.7377 125.627 89.2743C127.548 88.6778 129.319 87.6756 130.819 86.3355C132.319 84.9953 133.513 83.3486 134.322 81.5067C134.946 80.1424 135.145 79.1899 135.197 79.2285Z" fill="#263238"/>
<path d="M137.167 97.6984C137.147 97.9674 137.095 98.233 137.012 98.4899C136.946 98.797 136.863 99.1 136.761 99.3973C136.652 99.7513 136.536 100.157 136.362 100.588C135.982 101.61 135.533 102.606 135.017 103.568C133.742 105.924 132.087 108.055 130.12 109.874C129.311 110.614 128.451 111.296 127.546 111.914C126.947 112.339 126.322 112.723 125.673 113.066C125.442 113.209 125.196 113.325 124.939 113.414C124.939 113.356 125.924 112.815 127.404 111.721C128.272 111.082 129.099 110.39 129.882 109.649C131.8 107.829 133.432 105.728 134.721 103.42C135.245 102.477 135.711 101.503 136.118 100.504C136.832 98.7924 137.109 97.6791 137.167 97.6984Z" fill="#263238"/>
<g opacity="0.3">
<path d="M136.833 98.8954C135.307 101.341 132.971 103.999 130.088 104.9C128.853 105.292 127.553 105.421 126.285 105.711C125 105.931 123.809 106.527 122.861 107.422C122.377 107.83 122.041 108.386 121.905 109.005C121.769 109.623 121.841 110.269 122.109 110.842C122.377 111.415 122.827 111.884 123.389 112.176C123.951 112.467 124.593 112.565 125.217 112.455C126.396 112.31 127.519 111.867 128.479 111.168C132.772 108.381 135.481 104.005 136.845 98.8825" fill="black"/>
</g>
<path d="M114.166 53.7697C114.244 53.8884 114.313 54.0132 114.372 54.143C114.5 54.394 114.674 54.7865 114.899 55.2563C115.343 56.2281 115.968 57.6439 116.637 59.4394C117.426 61.5348 118.058 63.6859 118.529 65.8749C119.11 68.5691 119.341 71.3268 119.217 74.0801C119.1 76.8408 118.506 79.5602 117.461 82.1181C116.592 84.2022 115.375 86.1236 113.863 87.8006C112.846 88.9247 111.682 89.9054 110.401 90.7159C109.944 90.999 109.577 91.1985 109.326 91.3208C109.202 91.3919 109.07 91.4501 108.934 91.4945C108.934 91.4945 109.448 91.2049 110.33 90.6064C111.569 89.7612 112.697 88.7646 113.689 87.6397C115.153 85.9654 116.329 84.0605 117.171 82.0022C118.186 79.4775 118.765 76.7987 118.883 74.0801C119.006 71.3567 118.79 68.6285 118.239 65.9586C117.783 63.7742 117.177 61.6239 116.424 59.5231C115.781 57.7276 115.202 56.3053 114.796 55.3143C114.597 54.8509 114.442 54.4712 114.32 54.1816C114.253 54.0507 114.201 53.9125 114.166 53.7697Z" fill="#FAFAFA"/>
<path d="M116.393 53.4866C116.481 53.6149 116.559 53.7506 116.624 53.892C116.766 54.1623 116.972 54.5356 117.229 55.089C117.731 56.1316 118.439 57.6632 119.198 59.5939C120.09 61.862 120.794 64.1995 121.303 66.5828C121.94 69.5103 122.157 72.5137 121.946 75.5024C121.734 78.5001 120.95 81.4295 119.636 84.1324C118.542 86.3186 117.052 88.2826 115.241 89.9243C114.016 91.0311 112.635 91.9506 111.141 92.6529C110.737 92.8425 110.323 93.008 109.899 93.1485C109.755 93.2064 109.607 93.2516 109.455 93.2836C109.455 93.245 110.054 93.0519 111.09 92.5307C112.543 91.7941 113.886 90.8584 115.08 89.7505C116.846 88.0955 118.296 86.1329 119.359 83.9586C120.638 81.285 121.402 78.3944 121.612 75.438C121.823 72.4814 121.622 69.5096 121.013 66.6085C120.52 64.2369 119.844 61.9067 118.992 59.6389C118.265 57.7083 117.59 56.1637 117.12 55.1019L116.579 53.8856C116.502 53.7601 116.439 53.6263 116.393 53.4866Z" fill="#FAFAFA"/>
<path d="M141.292 71.1649C140.726 71.6014 140.064 71.897 139.362 72.0272C138.69 72.2673 137.971 72.3445 137.264 72.2525C137.917 72.0172 138.589 71.8343 139.272 71.7054C139.93 71.4724 140.606 71.2916 141.292 71.1649Z" fill="#FAFAFA"/>
<path d="M140.745 72.4648C140.237 72.7702 139.676 72.9776 139.091 73.0762C138.535 73.2783 137.945 73.3722 137.354 73.3529C137.864 73.0541 138.424 72.8493 139.007 72.748C139.564 72.5464 140.153 72.4504 140.745 72.4648Z" fill="#FAFAFA"/>
<path d="M116.516 53.3386C116.516 53.3386 120.3 60.5528 129.798 59.4845C135.288 58.8409 131.948 54.0658 131.948 54.0658C131.948 54.0658 126.825 51.0733 116.516 53.3386Z" fill="#FFBE9D"/>
<path d="M143.873 123.209L146.254 167.613C146.629 171.124 145.987 174.668 144.404 177.824C142.822 180.98 140.366 183.614 137.328 185.414L88.5472 215.236L80.0781 204.077L124.76 169.576L120.255 120.152L143.873 123.209Z" fill="#263238"/>
<path d="M103.644 117.642L102.434 120.293C99.8216 126.04 99.2167 133.46 101.237 138.718C103.258 143.976 106.476 148.275 111.624 152.876L135.146 174.396C136.071 175.246 136.77 176.313 137.178 177.501C137.586 178.689 137.69 179.96 137.482 181.199L129.457 230.244L144.973 232.393L158.256 182.679C159.717 176.469 159.221 172.936 156.1 167.369L124.457 120.776L103.644 117.642Z" fill="#263238"/>
<path d="M155.096 165.85C154.987 165.732 154.888 165.605 154.8 165.47L154.002 164.357L151.126 160.219L141.73 146.499L132.424 132.72L129.631 128.524L128.885 127.372C128.793 127.242 128.713 127.105 128.646 126.961C128.758 127.077 128.857 127.204 128.943 127.34L129.741 128.454L132.617 132.592L142.013 146.312L151.319 160.084C152.484 161.834 153.43 163.263 154.112 164.28C154.421 164.763 154.665 165.142 154.858 165.432C154.948 165.565 155.027 165.705 155.096 165.85Z" fill="#455A64"/>
<path d="M135.004 199.868C134.994 199.735 134.994 199.602 135.004 199.469C135.036 199.18 135.081 198.826 135.133 198.317C135.262 197.287 135.442 195.833 135.661 194.018C136.143 190.324 136.812 185.157 137.591 179.152V179.204C137.282 177.765 136.618 176.427 135.661 175.31C134.642 174.111 133.541 172.984 132.366 171.938C126.284 166.275 120.634 161.313 116.618 157.632C114.61 155.791 112.995 154.292 111.894 153.243L110.607 152.027L110.285 151.698C110.208 151.628 110.176 151.589 110.182 151.583C110.189 151.576 110.227 151.583 110.305 151.673L110.652 151.975L111.939 153.146L116.74 157.452C120.788 161.088 126.471 166.024 132.552 171.694C133.744 172.749 134.858 173.889 135.886 175.104C136.871 176.266 137.55 177.655 137.861 179.146V179.197C137.031 185.189 136.323 190.35 135.815 194.044C135.551 195.859 135.345 197.307 135.171 198.336C135.094 198.813 135.036 199.192 134.991 199.476C135.009 199.606 135.014 199.737 135.004 199.868Z" fill="#455A64"/>
<path d="M128.71 177.724C128.299 177.508 127.929 177.223 127.616 176.881C126.009 175.295 124.965 173.227 124.642 170.992C124.557 170.535 124.557 170.066 124.642 169.608C124.879 171.137 125.328 172.625 125.974 174.03C126.714 175.38 127.634 176.622 128.71 177.724Z" fill="#455A64"/>
<path d="M131.137 130.609C131.246 130.057 131.465 129.532 131.78 129.065C132.001 128.549 132.32 128.081 132.72 127.688C132.611 128.239 132.392 128.762 132.076 129.226C131.857 129.744 131.537 130.214 131.137 130.609Z" fill="#455A64"/>
<path d="M112.621 18.883C112.313 16.5754 111.167 14.4614 109.403 12.943C107.981 11.7396 106.037 10.9609 104.254 11.4564C103.428 11.7114 102.692 12.199 102.135 12.8609C101.578 13.5228 101.224 14.331 101.114 15.189C101.027 16.0495 101.158 16.918 101.496 17.7143C101.833 18.5107 102.366 19.2092 103.045 19.7453C103.731 20.2695 104.524 20.6387 105.367 20.8275C106.21 21.0164 107.084 21.0204 107.929 20.8394C109.519 20.5047 111.044 19.5523 112.646 19.829" fill="#263238"/>
<path d="M87.8906 52.3282C88.8659 52.1739 89.8217 51.915 90.7415 51.5559C93.2401 50.5379 95.3155 48.6964 96.6236 46.3368C97.0575 45.566 97.3885 44.7417 97.6082 43.8848C97.8592 42.9967 97.93 42.025 98.1745 41.0339C98.2953 40.5242 98.4836 40.0329 98.7344 39.5731C99.0106 39.0963 99.3967 38.6926 99.8606 38.3954C100.85 37.8755 101.913 37.5129 103.014 37.3206C103.566 37.2369 104.097 37.0441 104.574 36.7535C105.051 36.463 105.466 36.0804 105.794 35.6281C106.393 34.6564 106.438 33.4207 106.599 32.2109C106.655 31.5828 106.765 30.9606 106.927 30.351C107.097 29.7143 107.427 29.1316 107.886 28.6585C108.864 27.706 110.222 27.4422 111.419 27.0303C112.02 26.8452 112.585 26.5602 113.092 26.1873C113.565 25.8021 113.899 25.2735 114.044 24.6814C114.36 23.4908 114.167 22.1973 114.598 20.9681C114.807 20.3554 115.215 19.8299 115.756 19.4751C116.278 19.1497 116.85 18.9127 117.449 18.7736C118.594 18.4647 119.759 18.2845 120.667 17.6345C121.502 16.9601 122.136 16.0698 122.501 15.0603C122.906 14.0821 123.221 13.0846 123.646 12.1643C123.854 11.7152 124.099 11.2846 124.38 10.8772C124.663 10.4822 124.991 10.1215 125.358 9.80252C126.057 9.20714 126.876 8.76828 127.758 8.51542C128.51 8.29073 129.299 8.21938 130.078 8.30561C130.857 8.39185 131.611 8.6339 132.295 9.01739C133.321 9.60598 134.159 10.4713 134.715 11.5144C135.058 12.1698 135.277 12.8834 135.359 13.6188C135.389 13.8732 135.389 14.1302 135.359 14.3846C135.359 14.3846 135.359 14.1207 135.269 13.6252C135.158 12.9059 134.918 12.2125 134.561 11.5787C133.999 10.5735 133.17 9.7428 132.167 9.17828C131.502 8.81736 130.772 8.59275 130.02 8.51761C129.267 8.44246 128.507 8.5183 127.784 8.74067C126.942 8.98415 126.162 9.40306 125.493 9.96984C125.145 10.2756 124.834 10.6212 124.566 10.9995C124.294 11.4064 124.059 11.8372 123.865 12.2866C123.453 13.1876 123.151 14.2173 122.739 15.1826C122.363 16.2527 121.694 17.1959 120.808 17.9048C119.849 18.6191 118.639 18.7993 117.526 19.1082C116.961 19.2355 116.42 19.4528 115.924 19.7518C115.44 20.0695 115.077 20.5411 114.894 21.0904C114.495 22.2037 114.682 23.4972 114.353 24.7715C114.196 25.4325 113.828 26.0244 113.304 26.4576C112.77 26.8595 112.168 27.1645 111.528 27.3585C110.299 27.7768 108.993 28.0471 108.117 28.9095C107.242 29.7718 107.055 31.0654 106.927 32.2559C106.798 33.4465 106.727 34.74 106.064 35.8083C105.74 36.3311 105.279 36.7559 104.732 37.0375C104.21 37.3001 103.66 37.5009 103.091 37.636C102.022 37.8154 100.987 38.1584 100.022 38.6528C99.609 38.9392 99.2573 39.3045 98.9867 39.7275C98.716 40.1505 98.5319 40.623 98.4448 41.1176C98.2003 42.0765 98.123 43.0482 97.8592 43.9621C97.6277 44.8372 97.2837 45.6787 96.8359 46.4655C96.0711 47.8185 95.0478 49.008 93.8241 49.9664C92.9078 50.6945 91.8828 51.2743 90.7866 51.6846C90.0999 51.9536 89.3855 52.1457 88.6564 52.2574L88.0901 52.3153C88.0243 52.3268 87.9574 52.3312 87.8906 52.3282Z" fill="#455A64"/>
<path d="M103.283 19.3785C103.283 19.3785 103.097 19.3335 102.859 19.1018C102.525 18.7505 102.318 18.2972 102.273 17.8147C102.243 17.466 102.285 17.115 102.396 16.7831C102.506 16.4511 102.684 16.1452 102.916 15.8841C103.495 15.2431 104.273 14.8149 105.124 14.6677C105.953 14.533 106.798 14.533 107.627 14.6677C108.301 14.7628 108.963 14.9267 109.603 15.1568C110.033 15.3089 110.45 15.4939 110.851 15.7103C111.128 15.8712 111.276 15.9742 111.263 15.9935C111.25 16.0128 110.62 15.7103 109.526 15.3499C108.895 15.1581 108.249 15.0225 107.595 14.9445C106.798 14.8356 105.988 14.8486 105.195 14.9831C104.413 15.1153 103.697 15.4996 103.155 16.0771C102.936 16.307 102.766 16.579 102.655 16.8766C102.544 17.1742 102.495 17.4912 102.511 17.8083C102.538 18.2422 102.693 18.6585 102.955 19.0053C103.148 19.2756 103.296 19.3785 103.283 19.3785Z" fill="#455A64"/>
<path d="M106.791 21.1161C106.668 20.7795 106.652 20.4131 106.746 20.0671C106.886 19.2058 107.333 18.424 108.003 17.865C108.673 17.306 109.522 17.0071 110.395 17.0231C110.751 16.9995 111.107 17.08 111.418 17.2548C111.418 17.3127 111.019 17.2162 110.401 17.2548C109.601 17.3127 108.838 17.6136 108.213 18.1172C107.606 18.6393 107.174 19.3359 106.977 20.1122C106.829 20.7171 106.829 21.1161 106.791 21.1161Z" fill="#455A64"/>
<path d="M111.727 54.3039C103.914 55.6811 98.161 62.4319 98.161 62.4319C97.8487 62.7283 97.5604 63.049 97.2987 63.3908C89.4924 73.9257 75.3472 93.348 74.8259 96.6494C73.9314 102.229 90.5156 131.259 90.5156 131.259L99.6026 128.312L90.5929 99.1978L104.899 79.2285L108.76 88.9397C123.562 80.6894 111.727 54.3039 111.727 54.3039Z" fill="#FFBE9D"/>
<path d="M106.219 82.6651L115.37 80.3676C115.37 80.3676 114.295 84.9626 111.2 87.215L108.529 88.3991L106.219 82.6651Z" fill="#263238"/>
<path d="M90.7405 131.755L93.4562 140.591L102.749 135.095L103.309 132.662C103.432 132.116 103.402 131.547 103.223 131.017C103.044 130.486 102.722 130.016 102.292 129.657L98.9586 126.89L98.0705 126.06C98.0705 126.06 89.4341 127.913 89.2539 127.99C89.0737 128.067 90.7405 131.755 90.7405 131.755Z" fill="#FFBE9D"/>
<path d="M93.103 139.967C93.103 139.967 93.0515 139.896 93.0064 139.78C92.6139 138.828 91.4362 134.516 91.9124 134.181C92.3886 133.846 94.0039 133.718 94.2678 134.252C94.5316 134.786 95.5549 139.722 95.5549 139.722C95.5549 139.722 95.6771 140.514 94.448 141.067C93.7143 141.408 93.103 139.967 93.103 139.967Z" fill="#FFBE9D"/>
<path d="M96.1282 140.765C96.1282 140.765 96.0768 140.694 96.0253 140.584C95.6392 139.626 94.4615 135.314 94.9312 134.979C95.401 134.644 97.0228 134.516 97.2866 135.05C97.5505 135.584 98.6059 140.52 98.6059 140.52C98.6059 140.52 98.7217 141.312 97.499 141.865C96.7396 142.213 96.1282 140.765 96.1282 140.765Z" fill="#FFBE9D"/>
<path d="M98.8685 140.81C98.8685 140.81 98.817 140.739 98.7655 140.623C98.3794 139.671 97.2017 135.359 97.6715 135.024C98.1413 134.69 99.7694 134.561 100.033 135.095C100.297 135.629 101.32 140.565 101.32 140.565C101.32 140.565 101.436 141.357 100.213 141.91C99.4798 142.251 98.8685 140.81 98.8685 140.81Z" fill="#FFBE9D"/>
<path d="M101.585 140.81C101.585 140.81 101.534 140.739 101.489 140.623C101.096 139.671 99.9185 135.359 100.388 135.024C100.858 134.69 102.486 134.561 102.75 135.095C103.014 135.629 104.037 140.565 104.037 140.565C104.037 140.565 104.159 141.357 102.93 141.91C102.197 142.251 101.585 140.81 101.585 140.81Z" fill="#FFBE9D"/>
<path d="M94.6465 135.5C94.6922 136.231 94.8284 136.953 95.0519 137.65C95.1799 138.358 95.3961 139.048 95.6955 139.703C95.6497 138.972 95.5136 138.25 95.29 137.553C95.1656 136.844 94.9493 136.154 94.6465 135.5Z" fill="#EB996E"/>
<path d="M97.1758 134.754C97.2957 135.786 97.5112 136.805 97.8193 137.798C98.0262 138.814 98.3256 139.809 98.7139 140.771C98.5857 139.74 98.3704 138.722 98.0703 137.727C97.8623 136.711 97.5629 135.716 97.1758 134.754Z" fill="#EB996E"/>
<g opacity="0.78">
<path d="M99.8086 134.226C99.9361 135.257 100.151 136.276 100.452 137.27C100.659 138.286 100.958 139.282 101.347 140.243C101.227 139.211 101.011 138.192 100.703 137.199C100.496 136.183 100.197 135.188 99.8086 134.226Z" fill="#EB996E"/>
</g>
<path d="M103.612 138.345C103.148 137.366 102.794 136.339 102.556 135.282C102.08 133.563 101.617 132.199 101.694 132.16C102.243 133.104 102.642 134.126 102.878 135.191C103.221 136.217 103.466 137.273 103.612 138.345Z" fill="#EB996E"/>
<path d="M111.187 76.931C110.81 76.9528 110.432 76.9528 110.055 76.931C109.158 76.9555 108.275 77.1654 107.464 77.5475C106.652 77.9296 105.928 78.4757 105.337 79.1513C105.116 79.4584 104.878 79.7528 104.623 80.0329C104.714 79.6525 104.895 79.2993 105.151 79.0033C105.722 78.2506 106.467 77.6473 107.322 77.245C108.177 76.8427 109.117 76.6533 110.061 76.6929C110.45 76.6821 110.836 76.7637 111.187 76.931Z" fill="#EB996E"/>
<path d="M90.7015 99.3587C90.4052 99.1593 90.1195 98.9445 89.8456 98.7152C89.1467 98.2157 88.3514 97.8674 87.5104 97.6923C86.6695 97.5173 85.8012 97.5193 84.9611 97.6984C84.6168 97.8047 84.2665 97.8907 83.9121 97.9558C84.1972 97.7137 84.5376 97.5456 84.9032 97.4667C85.7738 97.2144 86.6929 97.179 87.5803 97.3637C88.4672 97.5451 89.2947 97.9455 89.9872 98.5285C90.5149 98.9662 90.7402 99.3394 90.7015 99.3587Z" fill="#EB996E"/>
<path d="M241.698 157.04C241.698 157.04 234.079 185.646 233.287 206.851C232.38 231.042 241.447 259.763 241.447 259.763H200.627V272.46H257.169C257.169 272.46 246.074 225.288 247.58 201.895C248.585 187.24 250.933 172.708 254.595 158.482L241.698 157.04Z" fill="#263238"/>
<path d="M237.359 157.04C237.359 157.04 229.739 185.646 228.948 206.851C228.04 231.042 237.108 259.763 237.108 259.763H208.991C207.323 259.761 205.67 260.089 204.128 260.726C202.586 261.363 201.185 262.298 200.005 263.478C198.824 264.657 197.888 266.057 197.249 267.598C196.61 269.14 196.281 270.792 196.281 272.46H252.823C252.823 272.46 241.735 225.314 243.26 201.895C244.265 187.24 246.613 172.708 250.275 158.482L237.359 157.04Z" fill="#455A64"/>
<path d="M158.59 155.264C158.59 156.042 158.899 156.789 159.449 157.339C160 157.889 160.746 158.198 161.524 158.198H191.63V152.078L161.499 152.329C160.725 152.336 159.985 152.648 159.44 153.198C158.895 153.747 158.59 154.49 158.59 155.264Z" fill="#455A64"/>
<path d="M239.619 272.435H22.3953C20.2636 272.435 18.2191 271.588 16.7117 270.08C15.2043 268.573 14.3574 266.528 14.3574 264.397C14.3574 262.265 15.2043 260.22 16.7117 258.713C18.2191 257.206 20.2636 256.359 22.3953 256.359H239.619C241.75 256.359 243.795 257.206 245.302 258.713C246.81 260.22 247.657 262.265 247.657 264.397C247.657 266.528 246.81 268.573 245.302 270.08C243.795 271.588 241.75 272.435 239.619 272.435Z" fill="#455A64"/>
<path d="M206.437 272.435H22.3953C20.2636 272.435 18.2191 271.588 16.7117 270.08C15.2043 268.573 14.3574 266.528 14.3574 264.397C14.3574 262.265 15.2043 260.22 16.7117 258.713C18.2191 257.206 20.2636 256.359 22.3953 256.359H206.45C208.582 256.359 210.626 257.206 212.134 258.713C213.641 260.22 214.488 262.265 214.488 264.397C214.488 265.453 214.28 266.5 213.875 267.476C213.47 268.452 212.877 269.338 212.129 270.085C211.382 270.831 210.494 271.423 209.517 271.826C208.541 272.23 207.494 272.436 206.437 272.435Z" fill="#263238"/>
<path d="M189.28 157.04C189.28 157.04 181.66 185.646 180.868 206.851C179.961 231.042 189.029 259.763 189.029 259.763H148.215V272.46H204.757C204.757 272.46 193.656 225.288 195.168 201.895C196.169 187.24 198.515 172.707 202.176 158.482L189.28 157.04Z" fill="#263238"/>
<path d="M184.944 157.04C184.944 157.04 177.324 185.646 176.533 206.851C175.625 231.042 184.699 259.763 184.699 259.763H156.576C153.209 259.763 149.979 261.101 147.598 263.482C145.217 265.863 143.879 269.093 143.879 272.46H200.421C200.421 272.46 189.32 225.288 190.832 201.895C191.833 187.24 194.179 172.707 197.84 158.482L184.944 157.04Z" fill="#455A64"/>
<path d="M206.006 272.653C205.916 272.653 204.719 268.792 203.374 264.017C202.029 259.242 200.98 255.31 201.07 255.284C201.16 255.258 202.357 259.145 203.696 263.927C205.034 268.708 206.096 272.628 206.006 272.653Z" fill="#455A64"/>
<path d="M247.656 263.451C247.656 263.547 240.223 263.618 231.053 263.618C221.882 263.618 214.449 263.547 214.449 263.451C214.449 263.354 221.882 263.283 231.033 263.283C240.185 263.283 247.656 263.361 247.656 263.451Z" fill="#263238"/>
<path d="M244.761 272.435C244.761 272.402 245.089 272.235 245.655 271.83C246.445 271.254 247.127 270.544 247.67 269.732C248.542 268.386 249.04 266.832 249.111 265.23C249.182 263.629 248.825 262.037 248.075 260.619C247.613 259.834 247.043 259.117 246.383 258.489C245.732 257.95 244.976 257.553 244.162 257.324C242.767 256.921 241.332 256.671 239.883 256.578C238.641 256.481 237.63 256.449 236.935 256.423C236.572 256.429 236.208 256.407 235.848 256.359C236.207 256.302 236.571 256.281 236.935 256.294C237.637 256.294 238.647 256.294 239.902 256.339C241.376 256.401 242.838 256.632 244.259 257.028C245.116 257.265 245.914 257.679 246.601 258.244C247.289 258.892 247.883 259.633 248.365 260.445C248.843 261.266 249.168 262.166 249.324 263.103C249.45 263.973 249.472 264.854 249.388 265.729C249.252 267.217 248.729 268.644 247.869 269.867C247.292 270.685 246.568 271.388 245.733 271.939C245.43 272.119 245.192 272.254 245.025 272.332C244.857 272.409 244.767 272.447 244.761 272.435Z" fill="#263238"/>
<path d="M187.556 153.179L185.471 158.983L197.84 158.482L250.27 159.942L285.272 137.946L283.683 132.167L222.726 129.277L187.556 153.179Z" fill="#455A64"/>
<path d="M253.899 161.165L197.84 158.482L227.771 135.841L285.272 137.946L253.899 161.165Z" fill="#263238"/>
<path d="M190.168 151.402C189.882 151.729 189.558 152.02 189.203 152.271C188.381 152.915 187.61 153.623 186.899 154.389C186.212 155.155 185.647 156.023 185.226 156.963C185.087 157.376 184.921 157.78 184.73 158.173C184.739 157.73 184.833 157.293 185.007 156.886C185.373 155.875 185.93 154.944 186.648 154.144C187.369 153.362 188.177 152.665 189.055 152.065C189.396 151.797 189.77 151.574 190.168 151.402Z" fill="#263238"/>
<path d="M227.772 135.861C226.812 134.858 225.932 133.782 225.14 132.643C224.263 131.563 223.471 130.416 222.771 129.213C223.735 130.214 224.617 131.29 225.41 132.431C226.289 133.508 227.079 134.655 227.772 135.861Z" fill="#263238"/>
<path d="M199.59 158.732C198.864 158.785 198.134 158.785 197.408 158.732L192.144 158.61C190.091 158.552 188.231 158.475 186.88 158.391C186.152 158.38 185.427 158.309 184.711 158.179C185.437 158.124 186.166 158.124 186.893 158.179L192.157 158.301C194.21 158.359 196.07 158.436 197.421 158.52C198.149 158.529 198.874 158.6 199.59 158.732Z" fill="#263238"/>
<path d="M274.184 249.408C275.259 250.934 277.337 250.432 278.303 249.499C279.268 248.565 279.673 247.207 280.047 245.92C280.89 242.973 281.746 239.884 281.115 236.911C280.963 236.001 280.565 235.151 279.963 234.452C279.658 234.109 279.267 233.853 278.831 233.708C278.395 233.563 277.929 233.536 277.479 233.629C276.43 233.905 275.774 234.916 275.304 235.907C273.916 238.793 273.189 241.952 273.174 245.155C273.078 246.65 273.43 248.14 274.184 249.434" fill="url(#paint3_linear_639_1399)"/>
<g opacity="0.2">
<path d="M274.184 249.408C275.259 250.934 277.337 250.432 278.303 249.499C279.268 248.565 279.673 247.207 280.047 245.92C280.89 242.973 281.746 239.884 281.115 236.911C280.963 236.001 280.565 235.151 279.963 234.452C279.658 234.109 279.267 233.853 278.831 233.708C278.395 233.563 277.929 233.536 277.479 233.629C276.43 233.905 275.774 234.916 275.304 235.907C273.916 238.793 273.189 241.952 273.174 245.155C273.078 246.65 273.43 248.14 274.184 249.434" fill="black"/>
</g>
<path d="M278.192 257.144C279.998 256.297 282.029 256.053 283.984 256.449C285.047 256.547 286.047 257.001 286.822 257.736C287.536 258.521 287.665 259.898 286.854 260.574C286.327 260.93 285.691 261.089 285.059 261.024C283.54 261.024 281.841 260.741 280.637 261.668C279.942 262.189 279.479 263.058 278.655 263.316C278.24 263.417 277.804 263.377 277.414 263.204C277.024 263.03 276.702 262.732 276.499 262.357C276.104 261.595 276.016 260.71 276.255 259.885C276.345 259.31 276.567 258.764 276.903 258.289C277.239 257.813 277.68 257.421 278.192 257.144Z" fill="url(#paint4_linear_639_1399)"/>
<path d="M271.249 251.597C271.798 250.878 272.164 250.037 272.314 249.145C272.464 248.254 272.395 247.339 272.111 246.48C271.525 244.764 270.476 243.243 269.08 242.085C267.499 240.668 265.656 239.575 263.655 238.867C262.879 238.555 262.045 238.414 261.21 238.455C260.794 238.48 260.391 238.606 260.034 238.821C259.678 239.036 259.379 239.335 259.163 239.691C258.59 240.785 259.163 242.104 259.736 243.185C260.778 245.085 261.971 246.9 263.301 248.61C264.369 249.988 265.592 251.346 267.22 251.97C268.848 252.594 270.541 252.523 271.403 251.391" fill="url(#paint5_linear_639_1399)"/>
<path d="M274.113 272.46C274.169 272.233 274.201 272 274.21 271.765C274.261 271.263 274.319 270.626 274.397 269.873C274.474 269.12 274.603 268.123 274.821 267.093C275.069 265.974 275.407 264.876 275.832 263.811C276.25 262.75 276.813 261.751 277.505 260.844C278.073 260.106 278.799 259.504 279.629 259.081C280.189 258.802 280.791 258.615 281.411 258.528C281.644 258.519 281.875 258.485 282.1 258.425C281.867 258.402 281.632 258.402 281.398 258.425C280.754 258.476 280.125 258.642 279.539 258.914C278.663 259.327 277.897 259.943 277.305 260.709C276.58 261.626 275.995 262.645 275.568 263.734C275.138 264.816 274.802 265.934 274.564 267.074C274.383 268.003 274.258 268.942 274.191 269.886C274.133 270.691 274.113 271.341 274.101 271.817C274.083 272.031 274.087 272.247 274.113 272.46Z" fill="#263238"/>
<path d="M274.24 271.006C274.257 270.899 274.257 270.791 274.24 270.684V269.757C274.24 268.959 274.24 267.827 274.279 266.372C274.35 263.515 274.601 259.57 275.071 255.233C275.54 250.895 276.184 246.995 276.763 244.196C276.905 243.488 277.04 242.857 277.169 242.304C277.291 241.75 277.4 241.274 277.503 240.888C277.606 240.502 277.658 240.244 277.716 239.993C277.745 239.888 277.764 239.78 277.773 239.672C277.721 239.767 277.682 239.868 277.658 239.974L277.394 240.862C277.272 241.242 277.149 241.718 277.014 242.272C276.879 242.825 276.718 243.449 276.57 244.151C275.782 247.8 275.189 251.488 274.794 255.2C274.318 259.544 274.105 263.502 274.086 266.372C274.086 267.801 274.086 268.947 274.137 269.764C274.137 270.137 274.176 270.44 274.189 270.684C274.198 270.793 274.215 270.9 274.24 271.006Z" fill="#263238"/>
<path d="M274.261 263.373C274.292 263.052 274.292 262.729 274.261 262.408C274.209 261.535 274.112 260.665 273.971 259.802C273.759 258.519 273.476 257.249 273.122 255.998C272.7 254.461 272.168 252.955 271.532 251.494C270.43 248.809 268.849 246.347 266.866 244.228C266.523 243.862 266.156 243.52 265.766 243.205C265.599 243.063 265.451 242.921 265.296 242.806L264.871 242.516C264.615 242.322 264.343 242.148 264.061 241.995C264.995 242.728 265.882 243.519 266.718 244.363C268.634 246.501 270.172 248.95 271.268 251.603C271.901 253.056 272.434 254.55 272.864 256.076C273.283 257.472 273.559 258.753 273.772 259.834C273.984 260.915 274.081 261.803 274.151 262.408C274.164 262.732 274.201 263.055 274.261 263.373Z" fill="#263238"/>
<path d="M246.138 47.4952C245.346 44.0071 242.032 41.0082 238.467 41.3621C237.415 41.5128 236.405 41.8758 235.498 42.4289C234.59 42.9821 233.805 43.7139 233.19 44.5799C232.731 45.147 232.318 45.7496 231.954 46.3818C231.585 45.7511 231.17 45.1488 230.712 44.5799C230.096 43.7139 229.311 42.9821 228.404 42.4289C227.497 41.8758 226.487 41.5128 225.435 41.3621C221.87 41.0082 218.555 44.0071 217.764 47.4952C216.972 50.9832 218.285 54.69 220.441 57.5474C223.283 61.5302 227.479 64.3418 232.244 65.4566C236.24 64.5363 241.305 60.4047 243.461 57.5474C245.617 54.69 246.929 50.9896 246.138 47.4952Z" fill="url(#paint6_linear_639_1399)"/>
<path d="M245.487 53.9692C245.335 53.9984 245.179 54.0114 245.024 54.0079L243.692 54.04L238.807 54.0915L238.923 54.0079C238.492 55.591 237.99 57.4444 237.437 59.4716L237.308 59.9414L237.147 59.478C236.272 56.9875 235.3 54.1945 234.27 51.2535L233.344 48.5699H233.646L230.428 54.0143L230.39 54.1301H230.306L221.708 54.0658L219.269 54.0272H218.626C218.478 54.0272 218.4 54.0272 218.4 54.0272H218.626H219.269L221.708 53.9885L230.306 53.9242L230.171 54.0014L233.344 48.5377L233.524 48.2224L233.646 48.5634C233.949 49.4387 234.257 50.3332 234.579 51.247C235.596 54.188 236.555 56.9875 237.417 59.4845H237.128C237.7 57.4637 238.228 55.6232 238.672 54.0336V53.9435H238.769L243.653 53.995H244.985C245.152 53.9752 245.32 53.9666 245.487 53.9692Z" fill="#263238"/>
<path d="M222.179 75.438C222.179 76.384 221.336 76.9761 220.056 76.9761C218.775 76.9761 217.951 76.384 217.951 75.438C217.949 75.1883 218.02 74.9433 218.155 74.733C218.29 74.5228 218.483 74.3563 218.711 74.2539C218.531 74.15 218.382 73.9996 218.28 73.8184C218.178 73.6373 218.127 73.432 218.131 73.2242C218.131 72.3426 218.917 71.7891 220.062 71.7891C221.208 71.7891 221.993 72.3426 221.993 73.2242C221.996 73.4325 221.944 73.638 221.841 73.8191C221.738 74.0002 221.588 74.1503 221.407 74.2539C221.637 74.3544 221.833 74.52 221.97 74.7304C222.108 74.9409 222.18 75.1868 222.179 75.438ZM221.002 75.3994C221.002 74.9554 220.641 74.6851 220.056 74.6851C219.47 74.6851 219.129 74.9554 219.129 75.3994C219.129 75.8435 219.483 76.1266 220.056 76.1266C220.628 76.1266 221.002 75.8435 221.002 75.3994ZM219.283 73.2693C219.283 73.649 219.586 73.9128 220.056 73.9128C220.525 73.9128 220.847 73.6747 220.847 73.2693C220.847 72.8638 220.532 72.6257 220.056 72.6257C219.579 72.6257 219.283 72.8767 219.283 73.2693Z" fill="#263238"/>
<path d="M222.707 74.3826C222.707 72.7287 223.627 71.8084 224.856 71.8084C226.086 71.8084 227.006 72.748 227.006 74.3826C227.006 76.0172 226.099 76.9568 224.856 76.9568C223.614 76.9568 222.707 76.0108 222.707 74.3826ZM225.841 74.3826C225.841 73.2435 225.436 72.7673 224.856 72.7673C224.277 72.7673 223.885 73.2435 223.885 74.3826C223.885 75.5217 224.284 75.9979 224.856 75.9979C225.429 75.9979 225.841 75.5217 225.841 74.3826Z" fill="#263238"/>
<path d="M233.698 75.0068C233.712 75.2598 233.674 75.5129 233.585 75.7502C233.496 75.9876 233.359 76.2039 233.183 76.3854C233.006 76.5669 232.793 76.7098 232.559 76.8048C232.324 76.8999 232.072 76.945 231.819 76.9375C231.529 76.949 231.241 76.8829 230.985 76.746C230.73 76.6091 230.515 76.4064 230.364 76.1588V76.9053H229.875V71.5703H230.39V73.8356C230.546 73.5995 230.76 73.4072 231.011 73.2766C231.262 73.1459 231.542 73.0814 231.825 73.0891C232.077 73.0826 232.327 73.1281 232.56 73.2227C232.793 73.3174 233.004 73.4592 233.18 73.6392C233.356 73.8192 233.492 74.0337 233.582 74.269C233.671 74.5043 233.71 74.7555 233.698 75.0068ZM233.189 75.0068C233.178 74.7306 233.086 74.4638 232.924 74.2396C232.762 74.0154 232.537 73.8439 232.279 73.7462C232.02 73.6486 231.738 73.6292 231.469 73.6904C231.199 73.7517 230.953 73.8909 230.762 74.0908C230.571 74.2906 230.443 74.5423 230.394 74.8144C230.345 75.0865 230.377 75.367 230.486 75.6211C230.595 75.8751 230.777 76.0915 231.008 76.2432C231.239 76.3948 231.51 76.4752 231.786 76.4741C231.977 76.4771 232.166 76.4407 232.342 76.3672C232.518 76.2937 232.677 76.1846 232.808 76.0469C232.94 75.9091 233.042 75.7456 233.107 75.5666C233.173 75.3877 233.201 75.1971 233.189 75.0068Z" fill="#263238"/>
<path d="M238.557 75.0068C238.571 75.2598 238.533 75.5129 238.444 75.7502C238.356 75.9876 238.219 76.2039 238.042 76.3854C237.865 76.5669 237.653 76.7098 237.418 76.8048C237.183 76.8999 236.931 76.945 236.678 76.9375C236.395 76.9471 236.115 76.884 235.864 76.7545C235.613 76.6249 235.399 76.4331 235.243 76.1974V78.2954H234.734V73.147H235.223V73.8935C235.376 73.6473 235.591 73.4457 235.846 73.309C236.102 73.1723 236.388 73.1053 236.678 73.1148C236.928 73.1076 237.176 73.1517 237.408 73.2444C237.641 73.3371 237.851 73.4765 238.027 73.6538C238.203 73.8311 238.341 74.0427 238.432 74.2754C238.524 74.5081 238.566 74.7571 238.557 75.0068ZM238.049 75.0068C238.037 74.7308 237.945 74.4643 237.783 74.2402C237.622 74.0162 237.398 73.8446 237.14 73.7468C236.881 73.6489 236.6 73.6291 236.331 73.6899C236.061 73.7506 235.815 73.8892 235.624 74.0885C235.433 74.2877 235.304 74.5387 235.254 74.8104C235.204 75.0821 235.235 75.3625 235.344 75.6166C235.452 75.8708 235.632 76.0876 235.863 76.24C236.093 76.3925 236.363 76.4739 236.639 76.4741C236.83 76.4771 237.02 76.4407 237.196 76.3672C237.372 76.2938 237.531 76.1848 237.663 76.0472C237.795 75.9095 237.898 75.7461 237.964 75.5671C238.031 75.3881 238.059 75.1974 238.049 75.0068Z" fill="#263238"/>
<path d="M245.835 74.7237V76.9118H245.327V74.7752C245.327 73.9772 244.921 73.5717 244.239 73.5717C244.061 73.5589 243.882 73.5858 243.715 73.6506C243.548 73.7153 243.397 73.8163 243.274 73.9462C243.151 74.0761 243.058 74.2316 243.003 74.4017C242.947 74.5718 242.93 74.7521 242.952 74.9296V76.9118H242.444V74.7752C242.444 73.9772 242.045 73.5717 241.356 73.5717C241.178 73.5601 240.999 73.5878 240.833 73.653C240.667 73.7181 240.517 73.8191 240.394 73.9487C240.271 74.0783 240.178 74.2334 240.122 74.403C240.066 74.5725 240.048 74.7523 240.069 74.9296V76.9118H239.561V73.1406H240.05V73.8292C240.194 73.5966 240.397 73.407 240.64 73.2802C240.882 73.1534 241.154 73.094 241.427 73.1084C241.706 73.0884 241.984 73.1541 242.224 73.2968C242.465 73.4394 242.656 73.6521 242.772 73.9064C242.925 73.6502 243.144 73.4406 243.408 73.3C243.671 73.1594 243.967 73.0932 244.265 73.1084C244.481 73.0848 244.699 73.1108 244.904 73.1843C245.108 73.2579 245.293 73.3771 245.444 73.5328C245.596 73.6885 245.71 73.8767 245.777 74.0831C245.845 74.2895 245.865 74.5085 245.835 74.7237Z" fill="#263238"/>
<path d="M258.365 88.4377C259.207 88.4125 260.035 88.2222 260.804 87.8778C261.733 87.4452 262.536 86.7802 263.133 85.9472C263.519 85.427 263.814 84.8463 264.009 84.2289C264.22 83.5218 264.311 82.7845 264.279 82.0473C264.279 75.7405 264.279 66.6343 264.227 55.3786C264.227 49.7476 264.227 43.5759 264.227 36.9603C264.227 35.3085 264.227 33.6245 264.227 31.9084C264.227 31.0589 264.227 30.1837 264.227 29.3342C264.17 28.0189 263.667 26.7624 262.8 25.7715C261.933 24.7807 260.755 24.1147 259.459 23.8834C258.56 23.7742 257.654 23.7398 256.749 23.7804H253.976H205.542C204.499 23.7845 203.476 24.067 202.579 24.5987C201.682 25.1305 200.943 25.8922 200.439 26.8051C199.945 27.7145 199.696 28.7371 199.718 29.7718V45.2749C199.718 53.3772 199.718 61.1963 199.718 68.6422C199.718 72.3619 199.718 75.9872 199.718 79.5181V82.1438C199.691 82.9905 199.838 83.8338 200.149 84.6215C200.459 85.3849 200.927 86.0739 201.523 86.643C202.119 87.2121 202.828 87.6483 203.605 87.9229C204.368 88.1858 205.174 88.3037 205.98 88.2704H213.078H221.914L248.583 88.3219H255.836H257.721H258.365H257.721H255.836H248.583L221.914 88.3798H205.935C205.096 88.4183 204.258 88.2982 203.464 88.0258C202.649 87.7364 201.905 87.2784 201.279 86.6818C200.654 86.0852 200.162 85.3634 199.834 84.5635C199.512 83.7447 199.358 82.869 199.384 81.9893V79.5503C199.384 76.0236 199.384 72.3983 199.384 68.6743C199.384 61.2285 199.384 53.4094 199.384 45.3071V29.804C199.363 28.7135 199.625 27.6361 200.143 26.6764C200.675 25.7077 201.456 24.8988 202.405 24.3331C203.354 23.7674 204.437 23.4655 205.542 23.4586H253.976H256.775C257.697 23.4203 258.621 23.4591 259.536 23.5745C260.894 23.8329 262.125 24.5446 263.026 25.5932C263.928 26.6418 264.446 27.9653 264.498 29.3471C264.498 30.2223 264.498 31.0782 264.498 31.9213C264.498 33.6331 264.498 35.3192 264.498 36.9731C264.498 43.5888 264.498 49.7604 264.498 55.3915C264.498 66.6472 264.459 75.7534 264.446 82.0601C264.47 82.8093 264.37 83.5573 264.15 84.2739C263.949 84.9027 263.642 85.4926 263.243 86.018C262.63 86.8567 261.809 87.5219 260.862 87.9486C260.282 88.1989 259.668 88.3594 259.04 88.4248C258.577 88.4441 258.365 88.4377 258.365 88.4377Z" fill="#263238"/>
<path d="M231.999 93.0391C231.776 91.9781 231.776 90.8823 231.999 89.8213C232.222 90.8823 232.222 91.9781 231.999 93.0391Z" fill="#263238"/>
<path d="M231.993 99.4746C231.83 98.9549 231.773 98.4078 231.825 97.8657C231.769 97.3231 231.828 96.7748 231.999 96.2568C232.162 96.7765 232.217 97.324 232.16 97.8657C232.213 98.4078 232.156 98.9549 231.993 99.4746Z" fill="#263238"/>
<path d="M231.979 105.91C231.82 105.39 231.766 104.843 231.818 104.301C231.766 103.759 231.822 103.212 231.986 102.692C232.152 103.211 232.209 103.759 232.153 104.301C232.209 104.844 232.15 105.392 231.979 105.91Z" fill="#263238"/>
<path d="M231.967 112.346C231.809 111.825 231.754 111.278 231.807 110.737C231.754 110.195 231.811 109.647 231.974 109.128C232.141 109.647 232.198 110.195 232.141 110.737C232.198 111.279 232.138 111.828 231.967 112.346Z" fill="#263238"/>
<path d="M231.96 118.775C231.793 118.256 231.736 117.708 231.793 117.166C231.736 116.623 231.795 116.075 231.966 115.557C232.125 116.077 232.18 116.624 232.127 117.166C232.18 117.708 232.123 118.255 231.96 118.775Z" fill="#263238"/>
<path d="M231.954 125.21C231.787 124.691 231.73 124.143 231.787 123.601C231.734 123.059 231.791 122.512 231.954 121.992C232.177 123.053 232.177 124.149 231.954 125.21Z" fill="#263238"/>
<path d="M231.953 129.277C231.857 129.277 231.779 129.084 231.779 128.853C231.779 128.621 231.857 128.428 231.953 128.428C232.05 128.428 232.12 128.614 232.12 128.853C232.12 129.091 232.043 129.277 231.953 129.277Z" fill="#263238"/>
<path d="M172.638 79.6533C172.861 80.7142 172.861 81.81 172.638 82.871C172.415 81.81 172.415 80.7142 172.638 79.6533Z" fill="#263238"/>
<path d="M172.638 73.2178C172.861 74.2788 172.861 75.3745 172.638 76.4355C172.415 75.3745 172.415 74.2788 172.638 73.2178Z" fill="#263238"/>
<path d="M172.638 66.7823C172.861 67.8433 172.861 68.9391 172.638 70C172.415 68.9391 172.415 67.8433 172.638 66.7823Z" fill="#263238"/>
<path d="M172.638 60.3468C172.861 61.4078 172.861 62.5036 172.638 63.5646C172.415 62.5036 172.415 61.4078 172.638 60.3468Z" fill="#263238"/>
<path d="M176.05 57.3479C174.989 57.571 173.893 57.571 172.832 57.3479C173.893 57.1248 174.989 57.1248 176.05 57.3479Z" fill="#263238"/>
<path d="M182.483 57.3479C181.422 57.571 180.327 57.571 179.266 57.3479C180.327 57.1248 181.422 57.1248 182.483 57.3479Z" fill="#263238"/>
<path d="M188.919 57.3479C187.858 57.571 186.762 57.571 185.701 57.3479C186.762 57.1248 187.858 57.1248 188.919 57.3479Z" fill="#263238"/>
<path d="M195.354 57.3479C194.293 57.571 193.198 57.571 192.137 57.3479C193.198 57.1248 194.293 57.1248 195.354 57.3479Z" fill="#263238"/>
<path d="M199.55 57.3479C199.55 57.4444 199.332 57.5152 199.061 57.5152C198.791 57.5152 198.572 57.4444 198.572 57.3479C198.572 57.2513 198.791 57.1806 199.061 57.1806C199.332 57.1806 199.55 57.232 199.55 57.3479Z" fill="#263238"/>
<defs>
<linearGradient id="paint0_linear_639_1399" x1="138.118" y1="246.686" x2="138.118" y2="255.992" gradientUnits="userSpaceOnUse">
<stop stop-color="#1A2A6C"/>
<stop offset="0.510417" stop-color="#B21F1F"/>
<stop offset="1" stop-color="#FDBB2D"/>
</linearGradient>
<linearGradient id="paint1_linear_639_1399" x1="69.0825" y1="212.791" x2="69.0825" y2="235.199" gradientUnits="userSpaceOnUse">
<stop stop-color="#1A2A6C"/>
<stop offset="0.510417" stop-color="#B21F1F"/>
<stop offset="1" stop-color="#FDBB2D"/>
</linearGradient>
<linearGradient id="paint2_linear_639_1399" x1="122.102" y1="52.8588" x2="122.102" y2="123.627" gradientUnits="userSpaceOnUse">
<stop stop-color="#1A2A6C"/>
<stop offset="0.510417" stop-color="#B21F1F"/>
<stop offset="1" stop-color="#FDBB2D"/>
</linearGradient>
<linearGradient id="paint3_linear_639_1399" x1="277.246" y1="233.575" x2="277.246" y2="250.382" gradientUnits="userSpaceOnUse">
<stop stop-color="#1A2A6C"/>
<stop offset="0.510417" stop-color="#B21F1F"/>
<stop offset="1" stop-color="#FDBB2D"/>
</linearGradient>
<linearGradient id="paint4_linear_639_1399" x1="281.767" y1="256.264" x2="281.767" y2="263.37" gradientUnits="userSpaceOnUse">
<stop stop-color="#1A2A6C"/>
<stop offset="0.510417" stop-color="#B21F1F"/>
<stop offset="1" stop-color="#FDBB2D"/>
</linearGradient>
<linearGradient id="paint5_linear_639_1399" x1="265.659" y1="238.448" x2="265.659" y2="252.362" gradientUnits="userSpaceOnUse">
<stop stop-color="#1A2A6C"/>
<stop offset="0.510417" stop-color="#B21F1F"/>
<stop offset="1" stop-color="#FDBB2D"/>
</linearGradient>
<linearGradient id="paint6_linear_639_1399" x1="231.951" y1="41.3337" x2="231.951" y2="65.4566" gradientUnits="userSpaceOnUse">
<stop stop-color="#1A2A6C"/>
<stop offset="0.510417" stop-color="#B21F1F"/>
<stop offset="1" stop-color="#FDBB2D"/>
</linearGradient>
</defs>
</svg>
