<svg width="16" height="16" viewBox="0 0 16 16" fill="none" xmlns="http://www.w3.org/2000/svg">
<path fill-rule="evenodd" clip-rule="evenodd" d="M11.5 0C11.7761 0 12 0.223858 12 0.5V2H14.5C15.3281 2 16 2.67186 16 3.5V14.5C16 15.3281 15.3281 16 14.5 16H1.5C0.671858 16 0 15.3281 0 14.5V3.5C0 2.67186 0.671858 2 1.5 2H4V0.5C4 0.223858 4.22386 0 4.5 0C4.77614 0 5 0.223858 5 0.5V2H11V0.5C11 0.223858 11.2239 0 11.5 0ZM15 6H1V14.5C1 14.7759 1.22414 15 1.5 15H14.5C14.7759 15 15 14.7759 15 14.5V6ZM10.5 7C10.7761 7 11 7.22386 11 7.5V10H13.5C13.7761 10 14 10.2239 14 10.5C14 10.7761 13.7761 11 13.5 11H11V13.5C11 13.7761 10.7761 14 10.5 14C10.2239 14 10 13.7761 10 13.5V11H6V13.5C6 13.7761 5.77614 14 5.5 14C5.22386 14 5 13.7761 5 13.5V11H2.5C2.22386 11 2 10.7761 2 10.5C2 10.2239 2.22386 10 2.5 10H5V7.5C5 7.22386 5.22386 7 5.5 7C5.77614 7 6 7.22386 6 7.5V10H10V7.5C10 7.22386 10.2239 7 10.5 7ZM14.5 3H1.5C1.22414 3 1 3.22414 1 3.5V5H15V3.5C15 3.22414 14.7759 3 14.5 3Z" fill="#2F73DA"/>
</svg>
