<svg width="16" height="16" viewBox="0 0 16 16" fill="none" xmlns="http://www.w3.org/2000/svg">
<path d="M8 1.23298C4.26762 1.23298 1.23298 4.26762 1.23298 8C1.23298 11.7324 4.2724 14.767 8 14.767C11.7276 14.767 14.767 11.7324 14.767 8C14.767 4.26762 11.7324 1.23298 8 1.23298ZM8 16C3.58901 16 0 12.411 0 8C0 3.58901 3.58901 0 8 0C12.411 0 16 3.58901 16 8C16 12.411 12.411 16 8 16Z" fill="#2F73DA"/>
<path d="M12.0621 7.38352H8.61649V3.93788C8.61649 3.5938 8.33931 3.3214 8 3.3214C7.66069 3.3214 7.38351 3.59858 7.38351 3.93788V8.00001C7.38351 8.33932 7.66069 8.6165 8 8.6165H12.0621C12.4062 8.6165 12.6786 8.33932 12.6786 8.00001C12.6786 7.6607 12.4014 7.38352 12.0621 7.38352Z" fill="#2F73DA"/>
</svg>
